<svg width="685" height="457" viewBox="0 0 685 457" fill="none" xmlns="http://www.w3.org/2000/svg">
<path d="M222.005 171.976C223.297 157.277 226.866 142.902 232.568 129.425C234.158 125.675 235.907 122.007 237.816 118.421C237.912 118.234 237.935 118.014 237.881 117.809C237.826 117.604 237.698 117.429 237.524 117.322C237.35 117.214 237.143 117.182 236.947 117.233C236.751 117.283 236.582 117.412 236.474 117.592C229.531 130.651 224.666 144.827 222.076 159.552C221.355 163.664 220.813 167.806 220.451 171.976C220.359 173.028 221.914 173.021 222.005 171.976Z" fill="#29D8DB"/>
<path d="M241.582 121.055C247.019 121.055 251.427 116.399 251.427 110.655C251.427 104.911 247.019 100.254 241.582 100.254C236.144 100.254 231.736 104.911 231.736 110.655C231.736 116.399 236.144 121.055 241.582 121.055Z" fill="#29D8DB"/>
<path d="M223.012 172.252C223.851 162.716 226.166 153.391 229.865 144.648C230.896 142.214 232.031 139.835 233.27 137.509C233.332 137.387 233.347 137.245 233.311 137.112C233.276 136.979 233.193 136.865 233.08 136.796C232.967 136.726 232.833 136.705 232.706 136.738C232.579 136.771 232.469 136.854 232.399 136.971C227.894 145.443 224.739 154.639 223.058 164.192C222.591 166.86 222.239 169.547 222.004 172.252C221.944 172.935 222.953 172.93 223.012 172.252Z" fill="#29D8DB"/>
<path d="M235.712 139.217C239.24 139.217 242.1 136.197 242.1 132.47C242.1 128.744 239.24 125.723 235.712 125.723C232.185 125.723 229.325 128.744 229.325 132.47C229.325 136.197 232.185 139.217 235.712 139.217Z" fill="#29D8DB"/>
<path d="M221.74 171.615C216.848 163.552 213.244 154.695 211.07 145.397C210.466 142.809 209.975 140.195 209.598 137.556C209.576 137.42 209.505 137.298 209.399 137.216C209.294 137.134 209.163 137.099 209.033 137.117C208.903 137.135 208.785 137.206 208.704 137.315C208.623 137.423 208.585 137.561 208.598 137.698C209.979 147.305 212.846 156.606 217.083 165.231C218.267 167.638 219.555 169.984 220.944 172.271C221.294 172.847 222.087 172.189 221.74 171.615Z" fill="#29D8DB"/>
<path d="M208.59 138.744C212.118 138.744 214.977 135.723 214.977 131.997C214.977 128.27 212.118 125.249 208.59 125.249C205.062 125.249 202.203 128.27 202.203 131.997C202.203 135.723 205.062 138.744 208.59 138.744Z" fill="#29D8DB"/>
<path d="M202.131 177.585V164.328C202.132 163.01 202.629 161.747 203.511 160.815C204.393 159.883 205.589 159.358 206.837 159.357H236.12C237.367 159.358 238.563 159.883 239.446 160.815C240.328 161.747 240.824 163.01 240.826 164.328V177.585C240.824 178.903 240.328 180.166 239.446 181.098C238.563 182.03 237.367 182.555 236.12 182.556H206.837C205.589 182.555 204.393 182.03 203.511 181.098C202.629 180.166 202.132 178.903 202.131 177.585Z" fill="#6C757D"/>
<path d="M235.074 93.0738H222.524C221.276 93.0723 220.08 92.548 219.198 91.6161C218.316 90.6841 217.819 89.4205 217.818 88.1025V33.9712C217.819 32.6532 218.316 31.3897 219.198 30.4577C220.08 29.5257 221.276 29.0015 222.524 29H235.074C236.321 29.0015 237.518 29.5257 238.4 30.4577C239.282 31.3897 239.778 32.6532 239.78 33.9712V88.1025C239.778 89.4205 239.282 90.6841 238.4 91.6161C237.518 92.548 236.321 93.0723 235.074 93.0738Z" fill="#6C757D"/>
<path d="M239.257 39.4948H218.341V43.9137H239.257V39.4948Z" fill="#CCCCCC"/>
<path d="M239.257 73.7412H218.341V78.16H239.257V73.7412Z" fill="#CCCCCC"/>
<path d="M266.448 93.0738H253.898C252.65 93.0723 251.454 92.548 250.572 91.6161C249.69 90.6841 249.193 89.4205 249.192 88.1025V33.9712C249.193 32.6532 249.69 31.3897 250.572 30.4577C251.454 29.5257 252.65 29.0015 253.898 29H266.448C267.695 29.0015 268.892 29.5257 269.774 30.4577C270.656 31.3897 271.152 32.6532 271.154 33.9712V88.1025C271.152 89.4205 270.656 90.6841 269.774 91.6161C268.892 92.548 267.695 93.0723 266.448 93.0738Z" fill="#6C757D"/>
<path d="M270.631 39.4948H249.715V43.9137H270.631V39.4948Z" fill="#CCCCCC"/>
<path d="M270.631 73.7412H249.715V78.16H270.631V73.7412Z" fill="#CCCCCC"/>
<path d="M297.822 93.0738H285.272C284.024 93.0723 282.828 92.548 281.946 91.6161C281.064 90.6841 280.567 89.4205 280.566 88.1025V33.9712C280.567 32.6532 281.064 31.3897 281.946 30.4577C282.828 29.5257 284.024 29.0015 285.272 29H297.822C299.069 29.0015 300.266 29.5257 301.148 30.4577C302.03 31.3897 302.526 32.6532 302.528 33.9712V88.1025C302.526 89.4205 302.03 90.6841 301.148 91.6161C300.266 92.548 299.069 93.0723 297.822 93.0738Z" fill="#6C757D"/>
<path d="M302.005 39.4948H281.089V43.9137H302.005V39.4948Z" fill="#CCCCCC"/>
<path d="M302.005 73.7412H281.089V78.16H302.005V73.7412Z" fill="#CCCCCC"/>
<path d="M314.555 182.556H302.005C300.757 182.555 299.561 182.03 298.679 181.098C297.797 180.166 297.3 178.903 297.299 177.585V123.454C297.3 122.136 297.797 120.872 298.679 119.94C299.561 119.008 300.757 118.484 302.005 118.482H314.555C315.802 118.484 316.999 119.008 317.881 119.94C318.763 120.872 319.259 122.136 319.261 123.454V177.585C319.259 178.903 318.763 180.166 317.881 181.098C316.999 182.03 315.802 182.555 314.555 182.556Z" fill="#6C757D"/>
<path d="M318.738 128.977H297.822V133.396H318.738V128.977Z" fill="#CCCCCC"/>
<path d="M318.738 163.223H297.822V167.642H318.738V163.223Z" fill="#CCCCCC"/>
<path d="M345.929 182.556H333.379C332.131 182.555 330.935 182.03 330.053 181.098C329.171 180.166 328.674 178.903 328.673 177.585V123.454C328.674 122.136 329.171 120.872 330.053 119.94C330.935 119.008 332.131 118.484 333.379 118.482H345.929C347.176 118.484 348.373 119.008 349.255 119.94C350.137 120.872 350.633 122.136 350.635 123.454V177.585C350.633 178.903 350.137 180.166 349.255 181.098C348.373 182.03 347.176 182.555 345.929 182.556Z" fill="#6C757D"/>
<path d="M350.112 128.977H329.196V133.396H350.112V128.977Z" fill="#CCCCCC"/>
<path d="M350.112 163.223H329.196V167.642H350.112V163.223Z" fill="#CCCCCC"/>
<path d="M377.303 182.556H364.753C363.505 182.555 362.309 182.03 361.427 181.098C360.545 180.166 360.048 178.903 360.047 177.585V123.454C360.048 122.136 360.545 120.872 361.427 119.94C362.309 119.008 363.505 118.484 364.753 118.482H377.303C378.55 118.484 379.747 119.008 380.629 119.94C381.511 120.872 382.007 122.136 382.009 123.454V177.585C382.007 178.903 381.511 180.166 380.629 181.098C379.747 182.03 378.55 182.555 377.303 182.556Z" fill="#6C757D"/>
<path d="M381.486 128.977H360.57V133.396H381.486V128.977Z" fill="#CCCCCC"/>
<path d="M381.486 163.223H360.57V167.642H381.486V163.223Z" fill="#CCCCCC"/>
<path d="M231.936 272.038H219.387C218.139 272.037 216.943 271.513 216.06 270.581C215.178 269.649 214.682 268.385 214.681 267.067V212.936C214.682 211.618 215.178 210.354 216.06 209.422C216.943 208.49 218.139 207.966 219.387 207.965H231.936C233.184 207.966 234.38 208.49 235.262 209.422C236.145 210.354 236.641 211.618 236.642 212.936V267.067C236.641 268.385 236.145 269.649 235.262 270.581C234.38 271.513 233.184 272.037 231.936 272.038Z" fill="#6C757D"/>
<path d="M236.119 218.459H215.203V222.878H236.119V218.459Z" fill="#CCCCCC"/>
<path d="M236.119 252.706H215.203V257.125H236.119V252.706Z" fill="#CCCCCC"/>
<path d="M263.31 272.038H250.761C249.513 272.037 248.317 271.513 247.435 270.581C246.552 269.649 246.056 268.385 246.055 267.067V212.936C246.056 211.618 246.552 210.354 247.435 209.422C248.317 208.49 249.513 207.966 250.761 207.965H263.31C264.558 207.966 265.754 208.49 266.637 209.422C267.519 210.354 268.015 211.618 268.016 212.936V267.067C268.015 268.385 267.519 269.649 266.637 270.581C265.754 271.513 264.558 272.037 263.31 272.038Z" fill="#6C757D"/>
<path d="M267.494 218.459H246.577V222.878H267.494V218.459Z" fill="#CCCCCC"/>
<path d="M267.494 252.706H246.577V257.125H267.494V252.706Z" fill="#CCCCCC"/>
<path d="M294.684 272.038H282.135C280.887 272.037 279.691 271.513 278.809 270.581C277.926 269.649 277.43 268.385 277.429 267.067V212.936C277.43 211.618 277.926 210.354 278.809 209.422C279.691 208.49 280.887 207.966 282.135 207.965H294.684C295.932 207.966 297.128 208.49 298.011 209.422C298.893 210.354 299.389 211.618 299.391 212.936V267.067C299.389 268.385 298.893 269.649 298.011 270.581C297.128 271.513 295.932 272.037 294.684 272.038Z" fill="#6C757D"/>
<path d="M298.868 218.459H277.952V222.878H298.868V218.459Z" fill="#CCCCCC"/>
<path d="M298.868 252.706H277.952V257.125H298.868V252.706Z" fill="#CCCCCC"/>
<path d="M329.196 93.0738H316.646C315.399 93.0723 314.202 92.548 313.32 91.6161C312.438 90.6841 311.942 89.4205 311.94 88.1025V33.9712C311.942 32.6532 312.438 31.3897 313.32 30.4577C314.202 29.5257 315.399 29.0015 316.646 29H329.196C330.444 29.0015 331.64 29.5257 332.522 30.4577C333.404 31.3897 333.901 32.6532 333.902 33.9712V88.1025C333.901 89.4205 333.404 90.6841 332.522 91.6161C331.64 92.548 330.444 93.0723 329.196 93.0738Z" fill="#6C757D"/>
<path d="M333.379 39.4948H312.463V43.9137H333.379V39.4948Z" fill="#CCCCCC"/>
<path d="M333.379 73.7412H312.463V78.16H333.379V73.7412Z" fill="#CCCCCC"/>
<path d="M360.57 93.0738H348.02C346.773 93.0723 345.576 92.548 344.694 91.6161C343.812 90.6841 343.316 89.4205 343.314 88.1025V33.9712C343.316 32.6532 343.812 31.3897 344.694 30.4577C345.576 29.5257 346.773 29.0015 348.02 29H360.57C361.818 29.0015 363.014 29.5257 363.896 30.4577C364.778 31.3897 365.275 32.6532 365.276 33.9712V88.1025C365.275 89.4205 364.778 90.6841 363.896 91.6161C363.014 92.548 361.818 93.0723 360.57 93.0738Z" fill="#6C757D"/>
<path d="M364.753 39.4948H343.837V43.9137H364.753V39.4948Z" fill="#CCCCCC"/>
<path d="M364.753 73.7412H343.837V78.16H364.753V73.7412Z" fill="#CCCCCC"/>
<path d="M391.944 93.0738H379.394C378.147 93.0723 376.95 92.548 376.068 91.6161C375.186 90.6841 374.69 89.4205 374.688 88.1025V33.9712C374.69 32.6532 375.186 31.3897 376.068 30.4577C376.95 29.5257 378.147 29.0015 379.394 29H391.944C393.192 29.0015 394.388 29.5257 395.27 30.4577C396.152 31.3897 396.649 32.6532 396.65 33.9712V88.1025C396.649 89.4205 396.152 90.6841 395.27 91.6161C394.388 92.548 393.192 93.0723 391.944 93.0738Z" fill="#6C757D"/>
<path d="M396.127 39.4948H375.211V43.9137H396.127V39.4948Z" fill="#CCCCCC"/>
<path d="M396.127 73.7412H375.211V78.16H396.127V73.7412Z" fill="#CCCCCC"/>
<path d="M423.318 93.0738H410.768C409.521 93.0723 408.324 92.548 407.442 91.6161C406.56 90.6841 406.064 89.4205 406.062 88.1025V33.9712C406.064 32.6532 406.56 31.3897 407.442 30.4577C408.324 29.5257 409.521 29.0015 410.768 29H423.318C424.566 29.0015 425.762 29.5257 426.644 30.4577C427.526 31.3897 428.023 32.6532 428.024 33.9712V88.1025C428.023 89.4205 427.526 90.6841 426.644 91.6161C425.762 92.548 424.566 93.0723 423.318 93.0738Z" fill="#6C757D"/>
<path d="M427.501 39.4948H406.585V43.9137H427.501V39.4948Z" fill="#CCCCCC"/>
<path d="M427.501 73.7412H406.585V78.16H427.501V73.7412Z" fill="#CCCCCC"/>
<path d="M492.279 95.2832H194.226C193.948 95.2832 193.682 95.1668 193.486 94.9596C193.29 94.7524 193.18 94.4715 193.18 94.1785C193.18 93.8855 193.29 93.6045 193.486 93.3973C193.682 93.1901 193.948 93.0738 194.226 93.0738H492.279C492.557 93.0738 492.822 93.1901 493.019 93.3973C493.215 93.6045 493.325 93.8855 493.325 94.1785C493.325 94.4715 493.215 94.7524 493.019 94.9596C492.822 95.1668 492.557 95.2832 492.279 95.2832Z" fill="#CCCCCC"/>
<path d="M495.417 184.766H197.363C197.086 184.766 196.82 184.649 196.624 184.442C196.427 184.235 196.317 183.954 196.317 183.661C196.317 183.368 196.427 183.087 196.624 182.88C196.82 182.672 197.086 182.556 197.363 182.556H495.417C495.694 182.556 495.96 182.672 496.156 182.88C496.352 183.087 496.462 183.368 496.462 183.661C496.462 183.954 496.352 184.235 496.156 184.442C495.96 184.649 495.694 184.766 495.417 184.766Z" fill="#CCCCCC"/>
<path d="M498.554 272.038H200.5C200.223 272.038 199.957 271.922 199.761 271.715C199.565 271.508 199.455 271.227 199.455 270.934C199.455 270.641 199.565 270.36 199.761 270.152C199.957 269.945 200.223 269.829 200.5 269.829H498.554C498.831 269.829 499.097 269.945 499.293 270.152C499.49 270.36 499.6 270.641 499.6 270.934C499.6 271.227 499.49 271.508 499.293 271.715C499.097 271.922 498.831 272.038 498.554 272.038Z" fill="#CCCCCC"/>
<path d="M434.817 261.721C436.109 247.023 439.677 232.648 445.38 219.171C446.969 215.42 448.719 211.752 450.628 208.167C450.724 207.979 450.747 207.76 450.692 207.555C450.638 207.35 450.51 207.175 450.336 207.067C450.162 206.96 449.955 206.928 449.759 206.978C449.563 207.029 449.393 207.158 449.286 207.338C442.342 220.397 437.478 234.572 434.887 249.298C434.166 253.41 433.625 257.551 433.262 261.721C433.17 262.773 434.725 262.767 434.817 261.721Z" fill="#E6E6E6"/>
<path d="M454.393 210.801C459.831 210.801 464.239 206.144 464.239 200.4C464.239 194.656 459.831 190 454.393 190C448.955 190 444.547 194.656 444.547 200.4C444.547 206.144 448.955 210.801 454.393 210.801Z" fill="#29D8DB"/>
<path d="M435.824 261.998C436.662 252.462 438.977 243.136 442.677 234.393C443.708 231.96 444.843 229.58 446.081 227.254C446.143 227.133 446.158 226.99 446.123 226.857C446.088 226.724 446.005 226.611 445.892 226.541C445.779 226.471 445.645 226.451 445.517 226.483C445.39 226.516 445.28 226.6 445.21 226.717C440.706 235.189 437.55 244.385 435.869 253.938C435.402 256.606 435.051 259.292 434.815 261.998C434.756 262.68 435.764 262.676 435.824 261.998Z" fill="#E6E6E6"/>
<path d="M448.524 228.963C452.052 228.963 454.911 225.942 454.911 222.216C454.911 218.489 452.052 215.469 448.524 215.469C444.996 215.469 442.137 218.489 442.137 222.216C442.137 225.942 444.996 228.963 448.524 228.963Z" fill="#E6E6E6"/>
<path d="M434.551 261.361C429.66 253.297 426.055 244.44 423.881 235.143C423.278 232.554 422.787 229.941 422.409 227.302C422.387 227.166 422.316 227.044 422.211 226.962C422.106 226.88 421.974 226.844 421.844 226.863C421.715 226.881 421.597 226.952 421.516 227.06C421.435 227.169 421.396 227.306 421.409 227.444C422.791 237.05 425.657 246.352 429.894 254.976C431.079 257.383 432.366 259.73 433.756 262.016C434.106 262.593 434.899 261.934 434.551 261.361Z" fill="#E6E6E6"/>
<path d="M421.401 228.489C424.929 228.489 427.789 225.469 427.789 221.742C427.789 218.016 424.929 214.995 421.401 214.995C417.874 214.995 415.014 218.016 415.014 221.742C415.014 225.469 417.874 228.489 421.401 228.489Z" fill="#29D8DB"/>
<path d="M414.942 267.33V254.074C414.944 252.756 415.44 251.492 416.322 250.56C417.205 249.628 418.401 249.104 419.649 249.103H448.931C450.179 249.104 451.375 249.628 452.257 250.56C453.139 251.492 453.636 252.756 453.637 254.074V267.33C453.636 268.648 453.139 269.912 452.257 270.844C451.375 271.776 450.179 272.3 448.931 272.302H419.649C418.401 272.3 417.205 271.776 416.322 270.844C415.44 269.912 414.944 268.648 414.942 267.33Z" fill="#6C757D"/>
<path d="M532.313 391.071H133.863C133.585 391.071 133.319 390.954 133.123 390.747C132.927 390.54 132.817 390.259 132.817 389.966C132.817 389.673 132.927 389.392 133.123 389.185C133.319 388.978 133.585 388.861 133.863 388.861H532.313C532.59 388.861 532.856 388.978 533.052 389.185C533.249 389.392 533.359 389.673 533.359 389.966C533.359 390.259 533.249 390.54 533.052 390.747C532.856 390.954 532.59 391.071 532.313 391.071Z" fill="#3F3D56"/>
<path d="M341.022 254C356.807 254 369.604 239.002 369.604 220.5C369.604 201.998 356.807 187 341.022 187C325.236 187 312.439 201.998 312.439 220.5C312.439 239.002 325.236 254 341.022 254Z" fill="#2F2E41"/>
<path d="M314.164 408.002L313.416 394.482L362.429 384.998L363.533 404.954L314.164 408.002Z" fill="#FFB8B8"/>
<path d="M316.538 384.598L317.981 410.674L302.439 411.633L300.088 369.14C302.129 369.014 304.173 369.314 306.105 370.023C308.036 370.731 309.816 371.835 311.344 373.27C312.871 374.706 314.116 376.445 315.008 378.389C315.899 380.332 316.419 382.442 316.538 384.598Z" fill="#2F2E41"/>
<path d="M335.482 407.878L327.34 418.341L285.261 390.149L297.276 374.708L335.482 407.878Z" fill="#FFB8B8"/>
<path d="M318.695 423.357L334.396 403.179L346.423 413.622L320.837 446.505C319.257 445.134 317.949 443.447 316.986 441.542C316.024 439.636 315.426 437.549 315.227 435.4C315.029 433.25 315.232 431.081 315.827 429.014C316.422 426.948 317.397 425.026 318.695 423.357Z" fill="#2F2E41"/>
<path d="M312.053 359.222L306.49 386.927C306.362 387.565 306.369 388.225 306.511 388.859C306.653 389.494 306.926 390.088 307.31 390.598C307.695 391.108 308.182 391.521 308.736 391.809C309.29 392.097 309.897 392.252 310.514 392.262L365.208 393.194C365.824 393.204 366.435 393.071 366.997 392.803C367.559 392.535 368.058 392.139 368.458 391.643C368.858 391.147 369.15 390.565 369.311 389.936C369.473 389.308 369.502 388.649 369.395 388.008L364.611 359.371C364.44 358.348 363.933 357.421 363.18 356.753C362.426 356.086 361.474 355.72 360.491 355.72H316.145C315.187 355.72 314.257 356.068 313.512 356.705C312.767 357.343 312.252 358.231 312.053 359.222Z" fill="#2F2E41"/>
<path d="M321.123 368.976C321.123 368.976 267.787 333.625 257.329 352.406C252.1 361.796 254.714 370.91 258.636 377.676C262.276 383.837 267.5 388.776 273.698 391.917L316.94 414.27L332.627 396.594L322.169 386.652L321.123 368.976Z" fill="#2F2E41"/>
<path d="M348.314 363.453C348.314 363.453 417.337 342.463 403.741 382.233C390.146 422.003 338.901 406.537 338.901 406.537L333.672 389.966L351.451 376.709L348.314 363.453Z" fill="#2F2E41"/>
<path d="M341.022 259C355.174 259 366.647 245.121 366.647 228C366.647 210.879 355.174 197 341.022 197C326.869 197 315.396 210.879 315.396 228C315.396 245.121 326.869 259 341.022 259Z" fill="#FFB8B8"/>
<path d="M342.693 367.837C332.02 367.667 321.401 366.189 311.05 363.433L310.744 363.345L296.411 293.698C295.121 287.578 295.998 281.171 298.875 275.687C301.753 270.203 306.431 266.022 312.028 263.933C329.315 257.381 348.156 256.984 365.677 262.801H365.677C371.556 264.803 376.505 269.072 379.535 274.757C382.566 280.442 383.456 287.126 382.028 293.474L366.019 363.287L365.793 363.4C359.14 366.729 350.82 367.837 342.693 367.837Z" fill="#CCCCCC"/>
<path d="M323.44 373.248C323.96 371.719 324.792 370.33 325.875 369.179C326.959 368.027 328.269 367.14 329.712 366.58C331.155 366.021 332.697 365.802 334.229 365.94C335.761 366.078 337.245 366.569 338.578 367.379L366.801 341.502L369.354 361.838L342.162 383.294C340.726 385.569 338.55 387.208 336.046 387.901C333.542 388.594 330.884 388.293 328.577 387.055C326.269 385.817 324.471 383.727 323.524 381.182C322.578 378.638 322.548 375.814 323.44 373.248Z" fill="#FFB8B8"/>
<path d="M350.356 378.892C349.897 378.892 349.44 378.821 349 378.682C348.286 378.462 347.632 378.065 347.093 377.524C346.554 376.982 346.146 376.312 345.902 375.57L342.496 365.375C342.177 364.433 342.136 363.411 342.38 362.444C342.623 361.477 343.138 360.61 343.858 359.96L382.311 335.574L367.153 264.141L367.538 264.043C367.695 264.002 383.225 260.268 389.59 278.195C394.046 290.751 410.539 318.05 409.375 336.498C409.154 340.188 407.762 343.692 405.424 346.444C403.086 349.195 399.938 351.034 396.489 351.663L353.205 377.859C352.39 378.527 351.388 378.89 350.356 378.892Z" fill="#CCCCCC"/>
<path d="M354.669 370.824C354.149 369.296 353.317 367.907 352.233 366.755C351.15 365.603 349.84 364.716 348.397 364.157C346.954 363.597 345.412 363.379 343.88 363.517C342.348 363.655 340.863 364.146 339.531 364.956L311.308 339.078L308.755 359.415L335.947 380.87C337.383 383.145 339.559 384.785 342.063 385.478C344.567 386.171 347.224 385.87 349.532 384.632C351.84 383.393 353.637 381.304 354.584 378.759C355.531 376.214 355.561 373.391 354.669 370.824Z" fill="#FFB8B8"/>
<path d="M330.584 378.892C329.552 378.89 328.551 378.527 327.735 377.86L281.314 353.873C277.865 353.244 274.717 351.405 272.379 348.653C270.041 345.902 268.649 342.398 268.428 338.708C267.264 320.26 286.894 290.751 291.351 278.195C297.714 260.268 313.245 264.001 313.402 264.043L313.788 264.141L295.492 337.783L337.082 359.96C337.802 360.61 338.317 361.477 338.561 362.444C338.804 363.411 338.763 364.433 338.444 365.375L335.038 375.57C334.794 376.312 334.386 376.982 333.847 377.524C333.308 378.065 332.654 378.462 331.94 378.682C331.5 378.821 331.043 378.892 330.584 378.892Z" fill="#CCCCCC"/>
<path d="M385.963 389.966H292.886C290.945 389.964 289.085 389.148 287.712 387.698C286.34 386.249 285.568 384.283 285.566 382.233V328.102C285.568 326.052 286.34 324.086 287.712 322.636C289.085 321.187 290.945 320.371 292.886 320.369H385.963C387.903 320.371 389.764 321.187 391.137 322.636C392.509 324.086 393.281 326.052 393.283 328.102V382.233C393.281 384.283 392.509 386.249 391.136 387.698C389.764 389.148 387.903 389.964 385.963 389.966Z" fill="#29D8DB"/>
<path d="M339.424 361.796C342.89 361.796 345.699 358.828 345.699 355.167C345.699 351.507 342.89 348.539 339.424 348.539C335.959 348.539 333.15 351.507 333.15 355.167C333.15 358.828 335.959 361.796 339.424 361.796Z" fill="white"/>
<path d="M315.841 227C314.347 222.357 316.798 216.823 320.434 214.574C324.07 212.325 328.458 212.753 332.347 214.235C335.615 215.481 338.679 217.412 341.867 218.936C345.011 220.643 348.445 221.393 351.876 221.121C355.278 220.65 358.663 218.313 360.055 214.481C361.497 210.509 360.516 205.661 358.294 202.272C355.931 198.994 352.871 196.585 349.457 195.311C341.957 192.074 333.295 191.979 326.333 196.685C319.371 201.391 314.639 211.411 316.078 220.994" fill="#2F2E41"/>
<path d="M152.691 376.624C153.983 361.925 157.552 347.551 163.254 334.073C164.844 330.323 166.593 326.655 168.502 323.07C168.598 322.882 168.621 322.663 168.567 322.457C168.512 322.252 168.384 322.078 168.21 321.97C168.036 321.863 167.829 321.831 167.633 321.881C167.437 321.932 167.268 322.061 167.16 322.241C160.217 335.3 155.352 349.475 152.762 364.201C152.041 368.313 151.499 372.454 151.137 376.624C151.044 377.676 152.6 377.669 152.691 376.624Z" fill="#E6E6E6"/>
<path d="M172.267 325.703C177.705 325.703 182.113 321.047 182.113 315.303C182.113 309.559 177.705 304.903 172.267 304.903C166.83 304.903 162.422 309.559 162.422 315.303C162.422 321.047 166.83 325.703 172.267 325.703Z" fill="#29D8DB"/>
<path d="M153.698 376.9C154.536 367.365 156.852 358.039 160.551 349.296C161.582 346.863 162.717 344.483 163.956 342.157C164.018 342.035 164.033 341.893 163.997 341.76C163.962 341.627 163.879 341.514 163.766 341.444C163.653 341.374 163.519 341.353 163.392 341.386C163.265 341.419 163.155 341.503 163.085 341.619C158.58 350.091 155.425 359.288 153.744 368.841C153.276 371.508 152.925 374.195 152.69 376.9C152.63 377.583 153.639 377.579 153.698 376.9H153.698Z" fill="#E6E6E6"/>
<path d="M166.398 343.866C169.926 343.866 172.786 340.845 172.786 337.118C172.786 333.392 169.926 330.371 166.398 330.371C162.871 330.371 160.011 333.392 160.011 337.118C160.011 340.845 162.871 343.866 166.398 343.866Z" fill="#29D8DB"/>
<path d="M152.425 376.264C147.534 368.2 143.929 359.343 141.756 350.045C141.152 347.457 140.661 344.844 140.284 342.205C140.262 342.068 140.191 341.946 140.085 341.864C139.98 341.782 139.849 341.747 139.719 341.765C139.589 341.784 139.471 341.855 139.39 341.963C139.309 342.071 139.271 342.209 139.284 342.347C140.665 351.953 143.531 361.255 147.768 369.879C148.953 372.286 150.24 374.633 151.63 376.919C151.98 377.496 152.773 376.837 152.425 376.264Z" fill="#E6E6E6"/>
<path d="M139.276 343.392C142.803 343.392 145.663 340.371 145.663 336.645C145.663 332.919 142.803 329.898 139.276 329.898C135.748 329.898 132.889 332.919 132.889 336.645C132.889 340.371 135.748 343.392 139.276 343.392Z" fill="#29D8DB"/>
<path d="M132.817 382.233V368.976C132.818 367.658 133.314 366.395 134.197 365.463C135.079 364.531 136.275 364.007 137.523 364.005H166.805C168.053 364.007 169.249 364.531 170.131 365.463C171.014 366.395 171.51 367.658 171.511 368.976V382.233C171.51 383.551 171.014 384.815 170.131 385.747C169.249 386.679 168.053 387.203 166.805 387.204H137.523C136.275 387.203 135.079 386.679 134.197 385.747C133.314 384.815 132.818 383.551 132.817 382.233Z" fill="#6C757D"/>
<path d="M476.695 376.246C476.695 383.512 471.119 386.815 464.241 386.815C457.362 386.815 451.786 383.512 451.786 376.246C451.786 368.98 454.554 360.503 464.241 363.426C473.927 359.041 476.695 368.98 476.695 376.246Z" fill="#FF6584"/>
<path d="M315.748 400.325C315.264 400.326 314.796 400.14 314.432 399.803C314.068 399.465 313.833 398.999 313.771 398.492C313.358 394.867 311.085 387.767 310.127 384.884L310.127 384.883C310.03 384.596 310 384.289 310.041 383.987C310.081 383.686 310.189 383.399 310.357 383.152C310.518 382.931 310.721 382.748 310.953 382.616C311.186 382.484 311.442 382.405 311.705 382.385C311.968 382.365 312.232 382.404 312.48 382.5C312.728 382.595 312.954 382.745 313.143 382.94C313.312 383.127 313.442 383.348 313.526 383.591C313.611 383.833 313.647 384.092 313.632 384.35C313.445 388.051 315.999 394.032 317.538 397.269C317.684 397.574 317.757 397.911 317.751 398.253C317.745 398.594 317.661 398.929 317.506 399.229C317.351 399.529 317.129 399.784 316.859 399.973C316.59 400.161 316.281 400.278 315.959 400.313C315.889 400.321 315.819 400.325 315.748 400.325Z" fill="#3F3D56"/>
<path d="M324.964 392.16C329.287 388.422 325.895 380.772 320.484 382.241C319.756 382.425 319.085 382.803 318.535 383.339C315.216 386.651 314.702 395.126 314.702 395.126C314.702 395.126 320.563 395.964 324.964 392.16Z" fill="#3F3D56"/>
</svg>
